<svg width="97" height="60" viewBox="0 0 97 60" fill="none" xmlns="http://www.w3.org/2000/svg">
<path d="M90.2274 5.63733C82.3711 10.2123 74.5149 14.7686 66.6961 19.4186C66.1524 19.7373 65.7774 20.7123 65.7211 21.4061C64.4836 37.9623 56.2899 50.0186 41.7399 57.6873C39.3211 58.9623 36.4711 59.4873 33.3024 59.2248C29.1211 58.8873 26.4774 55.5686 26.9086 51.3873C27.2836 47.7311 29.1211 44.7686 31.2961 41.9748C36.1336 35.8061 42.2274 30.9686 48.4711 26.3561C52.4274 23.4311 56.5524 20.7498 60.7149 17.8623C59.6836 15.8373 57.1711 14.3936 54.9961 14.5811C50.8711 14.9186 48.9024 15.8561 45.7899 17.0936C36.0211 20.9748 27.5836 27.0498 20.1024 34.3061C14.5336 39.7061 9.35863 45.4998 4.01488 51.1248C3.54613 51.6123 3.11488 52.1561 2.64613 52.5873C1.91488 53.2623 1.18363 53.5248 0.489878 53.0561C-0.260122 52.7186 0.0211282 51.4998 0.227378 50.8623C0.564878 49.8123 1.12738 48.7998 1.80238 47.9373C12.3211 34.2311 24.4336 22.3061 40.1461 14.5998C43.5961 12.9123 47.3461 11.7311 51.0774 10.7936C56.4399 9.46233 61.1836 10.5686 64.3711 15.7248C72.0024 11.6373 79.5211 7.60608 87.1711 3.49983C84.3586 3.49983 81.6961 3.49983 79.0149 3.49983C78.5649 3.49983 78.1149 3.55608 77.6649 3.51858C76.4461 3.42483 74.8336 3.66858 74.7211 1.90608C74.6086 0.181083 76.2399 0.162332 77.3086 0.143582C82.7274 0.012332 88.1649 -0.0626679 93.5836 0.0685821C95.7961 0.124832 96.8649 1.58733 95.9649 3.57483C93.4149 9.34983 90.5836 15.0311 87.7336 20.6748C87.4711 21.1998 86.5149 22.0061 85.4461 21.4811C84.6586 20.9936 84.6774 19.7186 84.9211 19.0998C86.4024 15.3686 88.0524 11.6936 89.6649 7.99983C89.9461 7.34358 90.2649 6.68733 90.5649 6.03108C91.2399 5.01858 90.8461 5.28108 90.2274 5.63733ZM62.2711 22.5873C62.3274 21.9123 61.3149 22.7936 61.1461 22.9061C52.3149 28.7936 43.6899 34.9436 36.5461 42.8748C34.6336 44.9936 33.0211 47.5248 31.8399 50.1311C30.2836 53.5998 32.2524 56.0186 36.0211 55.3248C38.4586 54.8748 40.9899 54.0686 43.1086 52.7936C52.1274 47.4123 59.3086 36.9311 61.1461 29.4873C61.8211 26.6373 61.8211 25.8498 62.2711 22.5873Z" fill="black"/>
</svg>
