<svg width="53" height="48" viewBox="0 0 53 48" fill="none" xmlns="http://www.w3.org/2000/svg">
<g clip-path="url(#clip0_1066_9789)">
<path d="M1.21876 34.7281L18.8148 4.36182C21.0499 5.68829 32.3207 11.9759 34.1409 13.1717L16.5449 43.5396C14.6205 46.1024 -1.21924 38.6171 1.21876 34.7264V34.7281Z" fill="#FBBC04"/>
<path d="M51.775 34.7274L34.1791 4.36298C31.7191 0.236231 26.4212 -1.26346 22.0696 1.1739C17.718 3.61126 16.393 8.86162 18.8529 13.1726L36.4489 43.5408C38.9089 47.6657 44.207 49.1651 48.5586 46.728C52.7199 44.2904 54.235 38.8539 51.775 34.7309V34.7274Z" fill="#4285F4"/>
<path d="M8.83278 47.9015C13.711 47.9015 17.6656 44.0142 17.6656 39.2189C17.6656 34.4237 13.711 30.5364 8.83278 30.5364C3.95457 30.5364 0 34.4237 0 39.2189C0 44.0142 3.95457 47.9015 8.83278 47.9015Z" fill="#34A853"/>
</g>
<defs>
<clipPath id="clip0_1066_9789">
<rect width="53" height="48" fill="white"/>
</clipPath>
</defs>
</svg>
