<svg width="236" height="48" viewBox="0 0 236 48" fill="none" xmlns="http://www.w3.org/2000/svg">
<g clip-path="url(#clip0_1066_9770)">
<path d="M7.73223 31.398C7.73223 34.1349 8.33237 36.2363 9.11642 37.5074C10.1443 39.1726 11.6779 39.8783 13.2418 39.8783C15.258 39.8783 17.1026 39.3771 20.6574 34.4538C23.5055 30.5077 26.8616 24.9692 29.1193 21.4971L32.9427 15.6143C35.5991 11.5288 38.6736 6.98723 42.1984 3.90877C45.0769 1.39569 48.1813 0 51.3056 0C56.551 0 61.5476 3.04338 65.3711 8.75169C69.5559 15.0037 71.5873 22.878 71.5873 31.0043C71.5873 35.8352 70.6364 39.3845 69.018 42.1888C67.4545 44.9008 64.4077 47.6105 59.2816 47.6105V39.8783C63.6707 39.8783 64.7659 35.8398 64.7659 31.2185C64.7659 24.6328 63.2323 17.3243 59.8541 12.102C57.4572 8.39769 54.3505 6.13431 50.9322 6.13431C47.2355 6.13431 44.2606 8.92661 40.917 13.9043C39.1396 16.5489 37.3147 19.7718 35.2659 23.4088L33.0105 27.4098C28.4795 35.4535 27.3318 37.2858 25.0667 40.3094C21.0962 45.6037 17.7055 47.6109 13.2418 47.6109C7.94656 47.6109 4.59831 45.3148 2.52502 41.8551C0.83107 39.0355 0 35.3363 0 31.1215L7.73223 31.398Z" fill="#0081FB"/>
<path d="M6.09668 9.29769C9.64129 3.82615 14.7577 0 20.625 0C24.023 0 27.4012 1.00708 30.9288 3.89077C34.7873 7.04446 38.9002 12.2368 44.0309 20.7942L45.8701 23.8652C50.3117 31.2734 52.8385 35.0848 54.3172 36.882C56.219 39.1902 57.5511 39.8783 59.2815 39.8783C63.6701 39.8783 64.7653 35.8398 64.7653 31.2185L71.5867 31.0043C71.5867 35.8352 70.6358 39.3845 69.0174 42.1888C67.4539 44.9008 64.4071 47.6105 59.281 47.6105C56.0946 47.6105 53.2718 46.9177 50.1499 43.9689C47.7502 41.7055 44.9445 37.6846 42.7859 34.0703L36.366 23.3317C33.144 17.9423 30.1894 13.9242 28.4793 12.1043C26.6393 10.1474 24.2747 7.78431 20.5005 7.78431C17.4459 7.78431 14.8517 9.93092 12.6812 13.2138L6.09668 9.29769Z" fill="url(#paint0_linear_1066_9770)"/>
<path d="M20.5007 7.78477C17.446 7.78477 14.8519 9.93092 12.6813 13.2138C9.61147 17.8523 7.73223 24.7625 7.73223 31.398C7.73223 34.1349 8.33237 36.2363 9.11642 37.5074L2.52409 41.8551C0.831531 39.0355 0 35.3363 0 31.1215C0 23.4563 2.10095 15.4671 6.09682 9.29769C9.64143 3.82615 14.7578 0 20.6251 0L20.5007 7.78477Z" fill="url(#paint1_linear_1066_9770)"/>
<path d="M86.6182 1.50562H95.5627L110.771 29.0548L125.982 1.50562H134.732V46.7733H127.435V12.0795L114.096 36.1044H107.251L93.9153 12.0795V46.7733H86.6186L86.6182 1.50562ZM157.595 18.3841C152.362 18.3841 149.21 22.327 148.456 27.2105H166.216C165.85 22.1798 162.952 18.3841 157.595 18.3841ZM141.222 29.9918C141.222 19.717 147.854 12.2387 157.722 12.2387C167.428 12.2387 173.223 19.6219 173.223 30.5401V32.5468H148.456C149.335 37.8587 152.855 41.4384 158.531 41.4384C163.059 41.4384 165.89 40.0547 168.573 37.5245L172.45 42.2784C168.797 45.6407 164.152 47.5801 158.272 47.5801C147.59 47.5801 141.222 39.7805 141.222 29.9918M182.071 19.0312H175.355V13.0492H182.071V3.15562H189.111V13.0492H199.316V19.0316H189.111V34.1955C189.111 39.3725 190.764 41.2122 194.827 41.2122C196.682 41.2122 197.745 41.0525 199.316 40.7908V46.7087C197.359 47.2621 195.492 47.5164 193.47 47.5164C185.87 47.5164 182.071 43.3584 182.071 35.0355L182.071 19.0312ZM228.959 24.8493C227.546 21.2747 224.391 18.6425 219.756 18.6425C213.731 18.6425 209.876 22.9224 209.876 29.8948C209.876 36.6919 213.425 41.179 219.467 41.179C224.217 41.179 227.607 38.4121 228.959 34.9695V24.8493ZM236 46.7724H229.089V42.0518C227.158 44.8312 223.642 47.581 217.948 47.581C208.792 47.581 202.673 39.9056 202.673 29.8948C202.673 19.7895 208.939 12.2392 218.337 12.2392C222.982 12.2392 226.627 14.0992 229.089 17.3816V13.0492H236L236 46.7724Z" fill="#192830"/>
</g>
<defs>
<linearGradient id="paint0_linear_1066_9770" x1="914.967" y1="2663.04" x2="5838.24" y2="2911.38" gradientUnits="userSpaceOnUse">
<stop stop-color="#0064E1"/>
<stop offset="0.4" stop-color="#0064E1"/>
<stop offset="0.83" stop-color="#0073EE"/>
<stop offset="1" stop-color="#0082FB"/>
</linearGradient>
<linearGradient id="paint1_linear_1066_9770" x1="1120.25" y1="3464.85" x2="1120.25" y2="1645.2" gradientUnits="userSpaceOnUse">
<stop stop-color="#0082FB"/>
<stop offset="1" stop-color="#0064E0"/>
</linearGradient>
<clipPath id="clip0_1066_9770">
<rect width="236" height="48" fill="white"/>
</clipPath>
</defs>
</svg>
