<svg width="115" height="48" viewBox="0 0 115 48" fill="none" xmlns="http://www.w3.org/2000/svg">
<g clip-path="url(#clip0_1066_9751)">
<path d="M115 24.6908C115 16.5243 111.039 10.0804 103.468 10.0804C95.8651 10.0804 91.2651 16.5246 91.2651 24.6271C91.2651 34.2289 96.6959 39.0778 104.49 39.0778C108.292 39.0778 111.167 38.2165 113.339 37.0044V30.6242C111.167 31.7089 108.675 32.3789 105.513 32.3789C102.414 32.3789 99.6666 31.2942 99.3153 27.53H114.936C114.936 27.1151 115 25.4564 115 24.6908ZM99.2194 21.6603C99.2194 18.0556 101.424 16.5562 103.436 16.5562C105.385 16.5562 107.461 18.0556 107.461 21.6603H99.2194ZM78.9349 10.0804C75.8041 10.0804 73.7916 11.5478 72.6737 12.5688L72.2582 10.591H65.2306V47.7865L73.2166 46.0959L73.2487 37.0681C74.3987 37.8976 76.0916 39.0778 78.9028 39.0778C84.6209 39.0778 89.8278 34.4842 89.8278 24.3719C89.7959 15.1207 84.525 10.0804 78.9347 10.0804M77.0179 32.0597C75.1332 32.0597 74.0149 31.39 73.2485 30.5605L73.2164 18.7254C74.047 17.8004 75.197 17.1625 77.0179 17.1625C79.9248 17.1625 81.9373 20.4162 81.9373 24.5951C81.9373 28.8698 79.9567 32.0597 77.0179 32.0597ZM54.2416 8.19836L62.2597 6.47574V0L54.2416 1.69077V8.19836ZM54.2416 10.6228H62.2597V38.5355H54.2416V10.6228ZM45.6487 12.9833L45.1375 10.6228H38.2375V38.5355H46.2237V19.6188C48.1082 17.1625 51.3028 17.609 52.2931 17.9599V10.6228C51.2709 10.2399 47.5334 9.53809 45.6487 12.9833ZM29.6763 3.70049L21.8819 5.35918L21.85 30.9113C21.85 35.6328 25.3959 39.1097 30.1237 39.1097C32.7431 39.1097 34.6597 38.6313 35.7138 38.057V31.5813C34.6918 31.996 29.6444 33.4634 29.6444 28.7421V17.4175H35.7138V10.6228H29.6444L29.6763 3.70049ZM8.08189 18.7254C8.08189 17.4814 9.10409 17.0028 10.7974 17.0028C13.225 17.0028 16.2916 17.7367 18.7194 19.0446V11.5478C16.0681 10.4952 13.4487 10.0804 10.7974 10.0804C4.3125 10.0804 0 13.462 0 19.1085C0 27.9127 12.1388 26.5092 12.1388 30.3055C12.1388 31.7726 10.8612 32.2513 9.0722 32.2513C6.42091 32.2513 3.0347 31.1666 0.351289 29.6992V37.2915C3.3222 38.5676 6.325 39.1097 9.0722 39.1097C15.7166 39.1097 20.2847 35.8241 20.2847 30.1139C20.2528 20.6077 8.08189 22.2982 8.08189 18.7254Z" fill="#635BFF"/>
</g>
<defs>
<clipPath id="clip0_1066_9751">
<rect width="115" height="48" fill="white"/>
</clipPath>
</defs>
</svg>
